<svg width="129" height="35" viewBox="0 0 129 35" fill="none" xmlns="http://www.w3.org/2000/svg">
<path opacity="0.6" d="M25.5059 28.963C25.4938 28.8874 25.5249 28.8112 25.5867 28.7659C25.6484 28.7208 25.7302 28.7143 25.7981 28.7491C26.9579 29.3417 28.1761 29.8111 29.4328 30.1494C29.5018 30.1679 29.5753 30.149 29.6268 30.0994C30.173 29.5726 30.6848 29.0111 31.159 28.4182C31.2044 28.3612 31.2163 28.2844 31.1903 28.2162C30.7194 26.9891 30.1214 25.8151 29.4061 24.7135C29.3644 24.6494 29.3621 24.567 29.4002 24.5007C29.4382 24.4342 29.5102 24.3948 29.5864 24.3988C29.9152 24.416 30.2429 24.4246 30.5695 24.4246C31.5716 24.4245 32.5722 24.3429 33.5611 24.1809C33.6311 24.1694 33.6902 24.1221 33.7171 24.0562C33.9931 23.3775 34.2261 22.6822 34.415 21.9741C34.4337 21.9036 34.4137 21.8286 34.3627 21.7768C33.4186 20.8211 32.3748 19.9703 31.2492 19.239C31.1851 19.1973 31.1498 19.1231 31.1577 19.0468C31.1655 18.9706 31.2155 18.9052 31.2867 18.8778C32.5585 18.3873 33.773 17.7585 34.9086 17.0026C34.9676 16.9632 35.0021 16.8961 34.9999 16.8249C34.9766 16.1218 34.9114 15.4206 34.805 14.7253C34.7939 14.6534 34.7457 14.5929 34.6784 14.5661C33.4017 14.0604 32.0734 13.6977 30.7175 13.4844C30.6422 13.4726 30.5797 13.4191 30.556 13.3462C30.5325 13.2733 30.5515 13.1932 30.6055 13.139C31.5929 12.148 32.4667 11.049 33.2104 9.86255C33.2481 9.80227 33.252 9.72674 33.2207 9.66288C32.9041 9.01711 32.5482 8.39153 32.1551 7.78966L32.1464 7.80647C30.7121 7.85439 29.2881 8.06823 27.9026 8.44377L27.8457 8.45929C27.7722 8.47963 27.6935 8.45663 27.6424 8.39982C27.5913 8.34303 27.5763 8.26212 27.6038 8.19069C27.6107 8.17219 27.6178 8.1537 27.6247 8.13534C28.1283 6.8054 28.4798 5.42226 28.6721 4.01258C28.709 3.99732 28.7462 3.98296 28.7831 3.96796C28.1785 3.45542 27.54 2.98449 26.8722 2.55836L26.8677 2.56108C26.8709 2.63991 26.8275 2.71321 26.757 2.74808C25.5229 3.36392 24.3605 4.11501 23.2908 4.98766L23.245 5.02516C23.186 5.07376 23.1049 5.08486 23.0351 5.05385C22.9655 5.02283 22.9191 4.95501 22.9153 4.87851C22.9142 4.85873 22.9132 4.83907 22.912 4.81928C22.8362 3.44173 22.6093 2.07678 22.2356 0.749158C22.2157 0.678785 22.2354 0.60311 22.2871 0.551555C22.3019 0.536683 22.3168 0.521811 22.3314 0.50668C21.5492 0.282021 20.7522 0.112712 19.9464 0L19.9386 0.014096C19.993 0.0878816 19.99 0.189423 19.9313 0.259806C19.0562 1.32407 18.3005 2.48202 17.6781 3.71268L17.6515 3.76544C17.6174 3.83387 17.5477 3.87713 17.4715 3.87729C17.3953 3.87745 17.3255 3.83449 17.291 3.76622L17.2642 3.71346C16.6356 2.48216 15.8734 1.32447 14.9913 0.261487C14.9451 0.206104 14.9319 0.130063 14.9567 0.0622035C14.963 0.0452624 14.9696 0.0284507 14.9754 0.0115096C14.1783 0.127166 13.3902 0.298238 12.6167 0.523492L12.6155 0.534096C12.6887 0.581574 12.7224 0.671447 12.6987 0.755624C12.3281 2.08832 12.1054 3.4581 12.0347 4.83997L12.0316 4.8992C12.0281 4.97571 11.982 5.04371 11.9124 5.07496C11.8427 5.10622 11.7615 5.09541 11.7024 5.04702L11.6566 5.00977C10.5869 4.1439 9.4254 3.39917 8.19315 2.78907C8.12844 2.75732 8.08568 2.69314 8.08114 2.62095C8.08036 2.61048 8.07972 2.6 8.07907 2.58953C7.40987 3.01988 6.77052 3.49537 6.16544 4.01271C6.20084 4.0268 6.23638 4.04038 6.27166 4.05487C6.46934 5.46369 6.82592 6.84536 7.3345 8.17323L7.35575 8.22858C7.38361 8.29991 7.36902 8.38093 7.31805 8.43795C7.26709 8.49497 7.18846 8.51824 7.11485 8.49808L7.05782 8.48282C5.69263 8.11837 4.29072 7.9106 2.87892 7.8635C2.86669 7.84074 2.8551 7.81772 2.84287 7.79483C2.42127 8.44112 2.04256 9.11461 1.70921 9.81095C1.72324 9.81095 1.73727 9.80953 1.75131 9.80914C2.50228 11.0157 3.38738 12.1326 4.38956 13.1384L4.43141 13.1803C4.48566 13.2341 4.50508 13.3141 4.48157 13.3869C4.45807 13.4599 4.39568 13.5133 4.32029 13.5249L4.26197 13.5342C2.90971 13.7521 1.58542 14.1189 0.313024 14.6278C0.245698 14.6548 0.197705 14.7156 0.186976 14.7876C0.0828445 15.4861 0.0204598 16.1904 7.50774e-05 16.8963C-0.00183863 16.9675 0.0329401 17.0346 0.0920854 17.0736C1.2283 17.8228 2.44254 18.4452 3.71323 18.9298C3.78458 18.9571 3.83465 19.0222 3.8428 19.0984C3.85097 19.1746 3.81582 19.2489 3.75185 19.2908C2.63173 20.0247 1.59332 20.8774 0.654474 21.8341C0.60355 21.8861 0.583937 21.9612 0.602973 22.0315C0.794555 22.7414 1.03064 23.4384 1.30982 24.1184C1.33701 24.1844 1.39634 24.2313 1.46651 24.2425C2.43005 24.3963 3.40415 24.4736 4.37978 24.4738C4.72998 24.4738 5.08147 24.4639 5.43425 24.4442C5.51049 24.4399 5.58267 24.4789 5.621 24.5453C5.65933 24.6116 5.65732 24.6939 5.61579 24.7583C4.90595 25.8604 4.31328 27.0343 3.84752 28.2607C3.82166 28.3288 3.83383 28.4057 3.87945 28.4624C4.35677 29.0556 4.87182 29.6173 5.42138 30.1436C5.4731 30.193 5.54676 30.2118 5.61567 30.193C6.8689 29.8498 8.08312 29.3762 9.23862 28.7802C9.30651 28.7451 9.38825 28.7513 9.45012 28.7962C9.51198 28.8412 9.5435 28.9171 9.53165 28.9929C9.33224 30.2705 9.26485 31.5652 9.33054 32.8568C9.33423 32.9293 9.37593 32.9945 9.44011 33.028C10.1276 33.3868 10.8381 33.6992 11.567 33.963C11.6346 33.9873 11.7099 33.9742 11.7655 33.9286C12.7581 33.1109 13.6642 32.1926 14.4693 31.1883C14.5172 31.1285 14.5943 31.1008 14.6691 31.1166C14.7438 31.1324 14.8032 31.189 14.8231 31.263C15.1555 32.5027 15.6136 33.7048 16.1904 34.8506C16.2229 34.915 16.2868 34.9576 16.3586 34.9622C16.7363 34.9868 17.117 34.9994 17.5007 35C17.9042 35 18.3041 34.9863 18.7004 34.959C18.7724 34.9541 18.8364 34.9113 18.8686 34.8465C19.4413 33.6983 19.8951 32.494 20.2228 31.2527C20.2424 31.1786 20.3017 31.1217 20.3764 31.1056C20.4511 31.0896 20.5285 31.117 20.5765 31.1765C21.3861 32.1786 22.2965 33.0942 23.2931 33.9085C23.3489 33.9539 23.4242 33.9667 23.4917 33.9422C24.2186 33.6763 24.9271 33.3619 25.6123 33.0013C25.6765 32.9676 25.7179 32.9023 25.7214 32.8296C25.7826 31.5368 25.7103 30.241 25.5059 28.963ZM31.8254 22.0771C31.9657 22.1944 31.8921 22.4248 31.7095 22.4375C31.3306 22.4633 30.9496 22.4765 30.5666 22.4771C30.2743 22.4771 29.9803 22.4694 29.6863 22.4542C28.9541 22.4158 28.2252 22.3294 27.5042 22.1955C27.4619 22.1876 27.423 22.1663 27.3936 22.1345C26.8339 21.5335 26.2347 20.9708 25.6001 20.4502C25.5356 20.3977 25.51 20.3105 25.5356 20.2313C25.5614 20.1519 25.6331 20.0966 25.716 20.0922C26.5338 20.0434 27.3474 19.9396 28.1515 19.7819C28.1938 19.7735 28.2377 19.779 28.2767 19.7975C29.55 20.4053 30.7422 21.171 31.8257 22.0769L31.8254 22.0771ZM30.4169 15.4075C31.0837 15.5123 31.7435 15.6574 32.3928 15.8418C32.5688 15.8919 32.5942 16.1327 32.4326 16.2187C31.1872 16.8807 29.8641 17.3834 28.4943 17.7151C28.4524 17.725 28.4083 17.7213 28.3685 17.7043C27.6134 17.3835 26.8377 17.1138 26.0466 16.8972C25.9665 16.8756 25.908 16.8066 25.8992 16.7237C25.8905 16.6408 25.9335 16.5611 26.0072 16.5231C26.7349 16.1448 27.4368 15.7181 28.1077 15.2457C28.143 15.2208 28.1852 15.2079 28.2283 15.2088C28.9614 15.2272 29.6925 15.2935 30.4169 15.4075ZM30.5549 10.2535C29.687 11.3632 28.6833 12.3589 27.5678 13.2169C27.5336 13.243 27.4919 13.2576 27.4487 13.2584C26.6198 13.2744 25.793 13.3469 24.9739 13.4751C24.892 13.4883 24.8104 13.4494 24.7686 13.3772C24.727 13.3052 24.7337 13.2148 24.7858 13.1498C25.2885 12.5161 25.7492 11.8499 26.1648 11.1555C26.1868 11.1185 26.2201 11.0896 26.2595 11.0727C27.5743 10.5161 28.9545 10.1305 30.3666 9.92553C30.5469 9.89928 30.6678 10.1092 30.5549 10.2535ZM22.8021 8.16068C22.8072 8.11786 22.8258 8.0778 22.8551 8.04636C23.8179 7.01761 24.9051 6.11397 26.0914 5.35648C26.2459 5.25781 26.4422 5.40032 26.3973 5.57866C26.0529 6.94755 25.5392 8.26775 24.8683 9.50847C24.8478 9.5463 24.8158 9.57656 24.7769 9.59486C24.043 9.9425 23.3328 10.3386 22.6509 10.7805C22.5814 10.8258 22.4911 10.8235 22.4239 10.7747C22.3567 10.7259 22.3262 10.6406 22.3473 10.56C22.5514 9.77116 22.7033 8.96964 22.8021 8.16068ZM10.4408 6.52581C11.0287 7.00147 11.5842 7.5163 12.1035 8.0668C12.1329 8.09817 12.1516 8.1381 12.1569 8.18086C12.2586 8.98946 12.4134 9.79041 12.6204 10.5785C12.6418 10.659 12.6117 10.7445 12.5447 10.7936C12.4776 10.8427 12.3874 10.8453 12.3176 10.8001C11.6383 10.3636 10.9312 9.97247 10.2008 9.62925C10.162 9.61107 10.1299 9.58095 10.1092 9.54326C9.43193 8.30596 8.91254 6.98788 8.56331 5.62017C8.51773 5.44183 8.71356 5.29855 8.86845 5.39683C9.41365 5.7426 9.93863 6.11954 10.4408 6.52581ZM4.47866 10.3037C4.36497 10.1593 4.48587 9.94855 4.66715 9.97506C6.05377 10.1781 7.40977 10.5539 8.70378 11.0939C8.74338 11.1105 8.77668 11.1394 8.7988 11.1763C9.21906 11.8735 9.68479 12.542 10.1929 13.1774C10.2451 13.2422 10.2522 13.3326 10.2108 13.4049C10.1693 13.4771 10.088 13.5164 10.006 13.5036C9.20877 13.3822 8.40448 13.3135 7.59832 13.2981C7.55551 13.2975 7.51402 13.283 7.47986 13.2571C6.35995 12.4031 5.35162 11.4108 4.47866 10.3037ZM2.62038 15.9008C3.99212 15.5065 5.4084 15.2899 6.83482 15.2563C6.87767 15.2554 6.91969 15.268 6.95481 15.2927C7.61707 15.7548 8.30885 16.1726 9.02566 16.5435C9.09963 16.5814 9.14278 16.6611 9.13422 16.744C9.12566 16.8269 9.06716 16.8959 8.98703 16.9178C8.18759 17.1382 7.40389 17.4126 6.6413 17.7391C6.6017 17.7561 6.55773 17.7601 6.51577 17.7502C5.14805 17.4272 3.82627 16.9325 2.58163 16.2778C2.42069 16.1927 2.44464 15.9515 2.62038 15.9008ZM5.32649 22.5005C4.65742 22.538 3.98672 22.5354 3.31796 22.4927C3.13552 22.4809 3.06046 22.2507 3.20015 22.1327C4.28008 21.2223 5.4702 20.4524 6.74224 19.8416C6.78118 19.823 6.82505 19.8173 6.86739 19.8256C7.66679 19.9787 8.47541 20.0783 9.28793 20.1239C9.37076 20.1283 9.44239 20.1834 9.46823 20.2626C9.49406 20.3417 9.46877 20.4287 9.40458 20.4815C8.77212 21.0043 8.17518 21.569 7.61776 22.1719C7.58849 22.2037 7.54987 22.2251 7.50755 22.2333C6.78709 22.37 6.05852 22.4592 5.32649 22.5005ZM8.35332 27.0483C7.75313 27.3579 7.13495 27.6311 6.50212 27.8663C6.33063 27.9299 6.16878 27.7499 6.249 27.5852C6.86712 26.313 7.64207 25.1239 8.55559 24.0458C8.58358 24.0129 8.62135 23.9899 8.66335 23.98C9.4612 23.7925 10.2457 23.5517 11.0115 23.2591C11.089 23.2292 11.1768 23.2503 11.2324 23.3121C11.2881 23.3739 11.3002 23.4636 11.2629 23.5381C10.8965 24.2742 10.5797 25.0343 10.3145 25.8129C10.3005 25.8539 10.2739 25.8895 10.2385 25.9142C9.63538 26.333 9.00564 26.7119 8.35332 27.0483ZM12.9594 29.9676C12.5392 30.492 12.0882 30.9907 11.6088 31.4611C11.4781 31.5894 11.2573 31.4915 11.2638 31.308C11.3135 29.8932 11.541 28.4904 11.9407 27.1327C11.9532 27.0915 11.9783 27.0553 12.0126 27.0293C12.6611 26.5348 13.2761 25.9974 13.8537 25.4209C13.9124 25.3621 14.0011 25.3454 14.077 25.3792C14.1528 25.4128 14.2003 25.4898 14.1963 25.5731C14.1596 26.3954 14.1776 27.219 14.2504 28.0388C14.2544 28.082 14.2445 28.1252 14.2221 28.1623C13.8407 28.791 13.4189 29.3941 12.9594 29.9676ZM14.0547 7.3285C14.0265 7.29593 14.0094 7.25515 14.0058 7.21211C13.8896 5.80489 13.9492 4.38859 14.1832 2.99624C14.2137 2.81519 14.4505 2.76346 14.5523 2.91684C14.9133 3.45894 15.2429 4.02151 15.5394 4.60176C15.8841 5.27643 16.1833 5.97363 16.4348 6.68862C16.4491 6.72929 16.45 6.77346 16.4375 6.81471C16.2033 7.59489 16.0207 8.3898 15.8909 9.19422C15.8781 9.2766 15.8159 9.34246 15.7348 9.35997C15.6535 9.37748 15.57 9.343 15.5245 9.27323C15.0779 8.59309 14.5868 7.94344 14.0547 7.3285ZM18.3492 30.7541C18.1763 31.4094 17.9644 32.0535 17.7145 32.6832C17.6467 32.8538 17.4054 32.8543 17.3372 32.6839C16.8104 31.3709 16.4497 29.9966 16.2638 28.5933C16.2583 28.5504 16.2665 28.5067 16.2874 28.4688C16.6829 27.7481 17.03 27.0015 17.3263 26.2342C17.356 26.1564 17.4304 26.105 17.5133 26.1049C17.5964 26.1046 17.6709 26.1557 17.7009 26.2334C18.0002 26.9997 18.3501 27.7448 18.7483 28.4641C18.7693 28.502 18.7777 28.5456 18.7723 28.5885C18.6784 29.3189 18.537 30.0423 18.3492 30.7541ZM19.072 9.18917C18.94 8.39006 18.7559 7.60053 18.5207 6.8257C18.5082 6.78458 18.509 6.74053 18.5229 6.69987C18.9829 5.37024 19.6074 4.10389 20.3815 2.93055C20.4827 2.77717 20.7199 2.82709 20.7509 3.00814C20.9889 4.39539 21.0522 5.80717 20.9397 7.2103C20.9363 7.25328 20.9193 7.29404 20.8913 7.32669C20.3652 7.94058 19.8798 8.58859 19.4384 9.26651C19.3932 9.33623 19.3099 9.37087 19.229 9.35376C19.1478 9.33665 19.0855 9.27128 19.072 9.18917ZM20.7844 28.011C20.8529 27.1959 20.8675 26.3771 20.8278 25.5601C20.8236 25.4769 20.8707 25.3996 20.9464 25.3656C21.0221 25.3316 21.1109 25.3479 21.1698 25.4064C21.7533 25.9842 22.3745 26.5222 23.0295 27.0167C23.064 27.0426 23.0893 27.0788 23.1018 27.1202C23.5038 28.4721 23.7357 29.8693 23.7919 31.2792C23.7993 31.4627 23.5791 31.5619 23.4476 31.4344C22.4348 30.4498 21.5497 29.3409 20.8135 28.1336C20.7912 28.0968 20.7811 28.0539 20.7847 28.011H20.7844ZM24.0046 23.2344C24.7716 23.5238 25.557 23.7615 26.3555 23.9456C26.3976 23.9552 26.4355 23.9782 26.4635 24.0111C27.381 25.0856 28.1605 26.2717 28.7834 27.5415C28.8642 27.7063 28.7032 27.8864 28.5314 27.8235C27.2077 27.3375 25.9499 26.6865 24.7877 25.8856C24.7522 25.861 24.7254 25.8256 24.7113 25.7846C24.4433 25.0072 24.1238 24.2488 23.7548 23.5143C23.7174 23.4401 23.7292 23.3504 23.7845 23.2884C23.8398 23.2265 23.9274 23.205 24.0049 23.2344H24.0046Z" fill="#999999"/>
<path opacity="0.6" d="M46.9434 25.6596V15.1955C46.9434 14.5524 47.0711 13.9905 47.3264 13.5101C47.5817 13.0296 47.9279 12.6551 48.365 12.3865C48.8021 12.1179 49.2952 11.9836 49.8446 11.9836C50.6569 11.9836 51.3125 12.2371 51.8114 12.744C52.3104 13.251 52.5599 13.932 52.5599 14.7869V25.6596H57.3525V15.0139C57.3525 14.1059 57.6039 13.3739 58.1068 12.8178C58.6097 12.2617 59.3098 11.9836 60.2071 11.9836C60.9962 11.9836 61.6539 12.2257 62.1799 12.71C62.7059 13.1942 62.969 13.9206 62.969 14.8891V25.6596H67.9009V13.9357C67.9009 12.0441 67.3806 10.582 66.3401 9.54918C65.2995 8.51639 63.9476 8 62.2843 8C60.9769 8 59.8455 8.30076 58.8901 8.90227C57.9347 9.50379 57.2751 10.3039 56.9115 11.3027H56.7259C56.4396 10.2888 55.8672 9.48487 55.0085 8.89092C54.1497 8.29698 53.1092 8 51.8869 8C50.6801 8 49.6434 8.29508 48.7769 8.88525C47.9105 9.47542 47.2916 10.2812 46.9202 11.3027H46.7113V8.22699H42V25.6596H46.9434ZM79.8532 26C81.6557 26 83.2126 25.6236 84.5239 24.8708C85.8352 24.1179 86.8467 23.0662 87.5585 21.7157C88.2702 20.3651 88.6261 18.797 88.6261 17.0114C88.6261 15.2106 88.2702 13.6349 87.5585 12.2844C86.8467 10.9338 85.8352 9.8821 84.5239 9.12926C83.2126 8.37642 81.6557 8 79.8532 8C78.0506 8 76.4937 8.37642 75.1824 9.12926C73.8711 9.8821 72.8597 10.9338 72.148 12.2844C71.4363 13.6349 71.0803 15.2106 71.0803 17.0114C71.0803 18.797 71.4363 20.3651 72.148 21.7157C72.8597 23.0662 73.8711 24.1179 75.1824 24.8708C76.4937 25.6236 78.0506 26 79.8532 26ZM79.8764 22.2547C79.0486 22.2547 78.3543 22.0259 77.7935 21.5681C77.2326 21.1103 76.811 20.4842 76.5286 19.6898C76.2462 18.8953 76.105 17.9912 76.105 16.9773C76.105 15.9635 76.2462 15.0593 76.5286 14.2648C76.811 13.4704 77.2326 12.8424 77.7935 12.3808C78.3543 11.9193 79.0486 11.6885 79.8764 11.6885C80.6964 11.6885 81.3811 11.9193 81.9303 12.3808C82.4797 12.8424 82.8955 13.4704 83.1778 14.2648C83.4602 15.0593 83.6014 15.9635 83.6014 16.9773C83.6014 17.9912 83.4602 18.8953 83.1778 19.6898C82.8955 20.4842 82.4797 21.1103 81.9303 21.5681C81.3811 22.0259 80.6964 22.2547 79.8764 22.2547ZM96.7954 25.6596V15.5814C96.8032 14.8323 96.9483 14.191 97.2306 13.6576C97.513 13.1242 97.9076 12.7175 98.4143 12.4376C98.9209 12.1576 99.507 12.0177 100.172 12.0177C101.163 12.0177 101.94 12.3184 102.505 12.9199C103.07 13.5214 103.348 14.3556 103.34 15.4225V25.6596H108.284V14.5599C108.284 13.2056 108.028 12.0385 107.518 11.0586C107.008 10.0788 106.291 9.32408 105.371 8.79445C104.451 8.26482 103.371 8 102.133 8C100.811 8 99.6849 8.29698 98.7565 8.89092C97.8283 9.48487 97.1668 10.2888 96.7722 11.3027H96.5634V8.22699H91.852V25.6596H96.7954ZM120.227 26C122.029 26 123.586 25.6236 124.898 24.8708C126.209 24.1179 127.22 23.0662 127.932 21.7157C128.644 20.3651 129 18.797 129 17.0114C129 15.2106 128.644 13.6349 127.932 12.2844C127.22 10.9338 126.209 9.8821 124.898 9.12926C123.586 8.37642 122.029 8 120.227 8C118.424 8 116.867 8.37642 115.556 9.12926C114.245 9.8821 113.234 10.9338 112.522 12.2844C111.81 13.6349 111.454 15.2106 111.454 17.0114C111.454 18.797 111.81 20.3651 112.522 21.7157C113.234 23.0662 114.245 24.1179 115.556 24.8708C116.867 25.6236 118.424 26 120.227 26ZM120.25 22.2547C119.422 22.2547 118.728 22.0259 118.167 21.5681C117.606 21.1103 117.184 20.4842 116.902 19.6898C116.62 18.8953 116.479 17.9912 116.479 16.9773C116.479 15.9635 116.62 15.0593 116.902 14.2648C117.184 13.4704 117.606 12.8424 118.167 12.3808C118.728 11.9193 119.422 11.6885 120.25 11.6885C121.07 11.6885 121.754 11.9193 122.304 12.3808C122.853 12.8424 123.269 13.4704 123.551 14.2648C123.833 15.0593 123.975 15.9635 123.975 16.9773C123.975 17.9912 123.833 18.8953 123.551 19.6898C123.269 20.4842 122.853 21.1103 122.304 21.5681C121.754 22.0259 121.07 22.2547 120.25 22.2547Z" fill="#1B1B1B"/>
</svg>
